# xmcd
#
# Track frame offsets: 
#        150
#        14570
#        33757
#        56170
#        71997
#        84320
#        97087
#        118152
#        143457
#        158322
#        171512
#        189167
#        204932
#        227585
#
# Disc length: 3274 seconds
#
# Revision: 5
# Processed by: cddbd v1.5.2PL0 Copyright (c) Steve Scherf et al.
# Submitted via: ExactAudioCopy v0.99pb5
#
DISCID=b30cc80e
DTITLE=Chuck Brown and Eva Cassidy - The Other Side
DYEAR=1992
DGENRE=Blues
TTITLE0=Let The Good Times Roll
TTITLE1=Fever
TTITLE2=You Don't Know Me
TTITLE3=I Could Have Told You So
TTITLE4=Gee Baby, Ain't I Good To You
TTITLE5=I'll Go Crazy
TTITLE6=You Don't Know What Love Is
TTITLE7=Drown In My Own Tears
TTITLE8=God Bless The Child
TTITLE9=Red Top
TTITLE10=Dark End Of The Street
TTITLE11=The Shadow Of Your Smile
TTITLE12=Over The Rainbow
TTITLE13=You've Changed
EXTD=YEAR: 2004
EXTT0=Jazz with a twist of Go-Go
EXTT1=Jazz with a twist of Go-Go
EXTT2=Jazz with a twist of Go-Go
EXTT3=Jazz with a twist of Go-Go
EXTT4=Jazz with a twist of Go-Go
EXTT5=Jazz with a twist of Go-Go
EXTT6=jazz with a twist of Go-Go
EXTT7=Jazz with a twist of Go-Go
EXTT8=Jazz with a twist of Go-Go
EXTT9=Jazz with a twist of Go-Go
EXTT10=Jazz with a twist of Go-Go
EXTT11=Jazz with a twist of Go-Go
EXTT12=Jazz with a twist of Go-Go
EXTT13=Jazz with a twist of Go-Go
PLAYORDER=
